<?xml version="1.0" encoding="UTF-8" standalone="no"?>
<svg width="598px" height="599px" viewBox="0 0 598 599" version="1.1" xmlns="http://www.w3.org/2000/svg" xmlns:xlink="http://www.w3.org/1999/xlink" xmlns:sketch="http://www.bohemiancoding.com/sketch/ns">
    <!-- Generator: Sketch 3.5.2 (25235) - http://www.bohemiancoding.com/sketch -->
    <title>clear-day</title>
    <desc>Created with Sketch.</desc>
    <defs></defs>
    <g id="Page-1" stroke="none" stroke-width="1" fill="none" fill-rule="evenodd" sketch:type="MSPage">
        <g id="clear-day" sketch:type="MSLayerGroup" transform="translate(-2.000000, -1.000000)" fill="#FFFFFF">
            <path d="M301.402307,155.792419 C221.621314,155.792419 156.716638,220.703671 156.716638,300.478088 C156.716638,380.259081 221.621314,445.163757 301.402307,445.163757 C381.1833,445.163757 446.087976,380.259081 446.087976,300.478088 C446.087976,220.703671 381.1833,155.792419 301.402307,155.792419 L301.402307,155.792419 Z M301.402307,392.550786 C250.637367,392.550786 209.329609,351.249604 209.329609,300.478088 C209.329609,249.713148 250.637367,208.405389 301.402307,208.405389 C352.173824,208.405389 393.475005,249.713148 393.475005,300.478088 C393.475005,351.249604 352.173824,392.550786 301.402307,392.550786 L301.402307,392.550786 Z" id="Fill-1" sketch:type="MSShapeGroup"></path>
            <path d="M301.402307,108.092184 C315.930064,108.092184 327.708792,96.3134553 327.708792,81.7856989 L327.708792,28.2125416 C327.708792,13.6847851 315.930064,1.90605633 301.402307,1.90605633 C286.874551,1.90605633 275.095822,13.6847851 275.095822,28.2125416 L275.095822,81.7856989 C275.095822,96.3134553 286.874551,108.092184 301.402307,108.092184" id="Fill-2" sketch:type="MSShapeGroup"></path>
            <path d="M573.681006,274.171602 L520.107849,274.171602 C505.580092,274.171602 493.801364,285.950331 493.801364,300.478088 C493.801364,315.005844 505.580092,326.784573 520.107849,326.784573 L573.681006,326.784573 C588.208763,326.784573 599.987491,315.005844 599.987491,300.478088 C599.987491,285.950331 588.208763,274.171602 573.681006,274.171602" id="Fill-3" sketch:type="MSShapeGroup"></path>
            <path d="M301.402307,492.870568 C286.874551,492.870568 275.095822,504.649296 275.095822,519.177053 L275.095822,572.75021 C275.095822,587.277967 286.874551,599.056695 301.402307,599.056695 C315.930064,599.056695 327.708792,587.277967 327.708792,572.75021 L327.708792,519.177053 C327.708792,504.649296 315.930064,492.870568 301.402307,492.870568" id="Fill-4" sketch:type="MSShapeGroup"></path>
            <path d="M109.016404,300.478088 C109.016404,285.950331 97.2376748,274.171602 82.7099184,274.171602 L29.1367611,274.171602 C14.6090046,274.171602 2.83027582,285.950331 2.83027582,300.478088 C2.83027582,315.005844 14.6090046,326.784573 29.1367611,326.784573 L82.7099184,326.784573 C97.2376748,326.784573 109.016404,315.005844 109.016404,300.478088" id="Fill-5" sketch:type="MSShapeGroup"></path>
            <path d="M456.058134,172.148476 C462.786018,172.148476 469.527054,169.577017 474.656819,164.440676 L512.538158,126.559337 C522.81084,116.286654 522.81084,99.6280725 512.538158,89.35539 C502.258899,79.0827075 485.600317,79.0827075 475.340788,89.35539 L437.459449,127.243305 C427.18019,137.515988 427.18019,154.167993 437.459449,164.440676 C442.59579,169.577017 449.323674,172.148476 456.058134,172.148476" id="Fill-6" sketch:type="MSShapeGroup"></path>
            <path d="M474.663396,436.522076 C464.390713,426.249394 447.732131,426.249394 437.459449,436.522076 C427.18019,446.794759 427.18019,463.446764 437.452872,473.719446 L475.334211,511.607362 C480.470552,516.743703 487.205012,519.315162 493.939473,519.315162 C500.667356,519.315162 507.401817,516.743703 512.538158,511.607362 C522.81084,501.334679 522.81084,484.682674 512.544734,474.409992 L474.663396,436.522076" id="Fill-7" sketch:type="MSShapeGroup"></path>
            <path d="M128.167525,436.522076 L90.2861861,474.403415 C80.006927,484.682674 80.006927,501.334679 90.2861861,511.607362 C95.4159507,516.743703 102.150411,519.315162 108.884871,519.315162 C115.612755,519.315162 122.353792,516.743703 127.483556,511.607362 L165.371472,473.726023 C175.644154,463.446764 175.644154,446.794759 165.371472,436.522076 C155.105366,426.249394 138.433631,426.249394 128.167525,436.522076" id="Fill-8" sketch:type="MSShapeGroup"></path>
            <path d="M128.167525,164.440676 C133.310443,169.577017 140.038326,172.148476 146.76621,172.148476 C153.50067,172.148476 160.23513,169.577017 165.371472,164.440676 C175.644154,154.167993 175.644154,137.509411 165.371472,127.236729 L127.483556,89.35539 C117.204297,79.0827075 100.545715,79.0827075 90.2861861,89.35539 C80.006927,99.6280725 80.006927,116.286654 90.2861861,126.559337 L128.167525,164.440676" id="Fill-9" sketch:type="MSShapeGroup"></path>
        </g>
    </g>
</svg>