<?xml version="1.0" encoding="UTF-8" standalone="no"?>
<svg width="604px" height="498px" viewBox="0 0 604 498" version="1.1" xmlns="http://www.w3.org/2000/svg" xmlns:xlink="http://www.w3.org/1999/xlink" xmlns:sketch="http://www.bohemiancoding.com/sketch/ns">
    <!-- Generator: Sketch 3.5.2 (25235) - http://www.bohemiancoding.com/sketch -->
    <title>clear-night@2x</title>
    <desc>Created with Sketch.</desc>
    <defs></defs>
    <g id="Page-1" stroke="none" stroke-width="1" fill="none" fill-rule="evenodd" sketch:type="MSPage">
        <g id="clear-night" sketch:type="MSLayerGroup" transform="translate(1.384094, -0.127715)" fill="#FFFFFF">
            <path d="M417.8877,340.152361 C400.888115,345.719805 383.189588,348.547713 365.290215,348.547713 C305.406046,348.547713 249.779808,316.621273 220.110874,265.228863 C180.809377,197.158221 195.109595,109.364527 254.118076,56.4858585 C264.353175,47.3192585 267.622944,32.6575188 262.256346,20.0122705 C256.897781,7.36702208 244.132025,-0.530232778 230.370074,0.506131288 C192.611074,3.20549816 156.748057,14.2279129 123.785252,33.2600561 C4.86046713,101.917167 -36.0317274,254.535835 32.6334173,373.468654 C76.9962264,450.304204 159.720574,498.041221 248.52653,498.041221 C292.005618,498.041221 334.994642,486.488574 372.842015,464.636556 C405.796786,445.612447 433.272484,420.064868 454.505897,388.708829 C462.21034,377.332926 461.824716,362.317698 453.557905,351.343486 C445.28306,340.377308 430.966775,335.878363 417.8877,340.152361 L417.8877,340.152361 Z M248.52653,433.770582 C182.608955,433.770582 121.206393,398.349425 88.2917914,341.333334 C38.0241172,254.262685 66.8977022,142.857565 152.43389,90.9750906 C124.693075,156.48294 127.416543,233.21405 164.452499,297.364182 C200.829682,360.373511 265.260998,402.269934 336.96293,411.083046 C309.800551,425.937597 279.312167,433.770582 248.52653,433.770582 L248.52653,433.770582 Z" id="Fill-305" sketch:type="MSShapeGroup"></path>
            <path d="M352.717271,218.857596 C360.180699,218.857596 367.41918,215.804741 372.633135,210.582751 C377.863159,205.360762 380.835676,198.130315 380.835676,190.739191 C380.835676,183.348068 377.863159,176.117621 372.633135,170.815293 C362.116852,160.371314 343.31769,160.371314 332.873711,170.815293 C327.651721,176.037282 324.598866,183.348068 324.598866,190.739191 C324.598866,198.130315 327.651721,205.360762 332.873711,210.582751 C338.087667,215.804741 345.326147,218.857596 352.717271,218.857596" id="Fill-306" sketch:type="MSShapeGroup"></path>
            <path d="M465.190891,9.97801682 C455.710971,9.97801682 446.31139,13.8342552 439.643311,20.5826724 C432.88686,27.3310896 429.038656,36.569994 429.038656,46.1302517 C429.038656,55.610171 432.88686,64.9294138 439.643311,71.677831 C446.391728,78.4262482 455.710971,82.2824865 465.190891,82.2824865 C474.743114,82.2824865 484.062357,78.4262482 490.730436,71.677831 C497.478853,64.9294138 501.343125,55.610171 501.343125,46.1302517 C501.343125,36.6503323 497.478853,27.3310896 490.730436,20.5826724 C484.062357,13.8342552 474.743114,9.97801682 465.190891,9.97801682" id="Fill-307" sketch:type="MSShapeGroup"></path>
            <path d="M592.366419,216.206432 C586.421385,210.261398 578.138506,206.806851 569.63068,206.806851 C561.195159,206.806851 552.920314,210.261398 546.894941,216.206432 C540.941873,222.151466 537.49536,230.506649 537.49536,238.942171 C537.49536,247.377692 540.941873,255.652537 546.894941,261.67791 C552.920314,267.622944 561.195159,271.077491 569.63068,271.077491 C578.066202,271.077491 586.341046,267.622944 592.366419,261.67791 C598.391791,255.652537 601.766,247.377692 601.766,238.942171 C601.766,230.506649 598.391791,222.231805 592.366419,216.206432" id="Fill-308" sketch:type="MSShapeGroup"></path>
        </g>
    </g>
</svg>