<?xml version="1.0" encoding="UTF-8" standalone="no"?>
<svg width="596px" height="350px" viewBox="0 0 596 350" version="1.1" xmlns="http://www.w3.org/2000/svg" xmlns:xlink="http://www.w3.org/1999/xlink" xmlns:sketch="http://www.bohemiancoding.com/sketch/ns">
    <!-- Generator: Sketch 3.5.2 (25235) - http://www.bohemiancoding.com/sketch -->
    <title>cloudy</title>
    <desc>Created with Sketch.</desc>
    <defs></defs>
    <g id="Page-1" stroke="none" stroke-width="1" fill="none" fill-rule="evenodd" sketch:type="MSPage">
        <g id="cloudy" sketch:type="MSLayerGroup" transform="translate(-1.051870, 0.858953)" fill="#FFFFFF">
            <path d="M338.724633,138.444455 L331.279898,138.444455 C328.774205,128.184926 324.703276,115.820878 318.074042,103.312144 C296.509301,62.6160116 257.865074,40.2094627 209.263842,40.2094627 C160.531078,40.2094627 122.097303,62.7146609 101.038962,103.581786 C94.2190057,116.820524 90.253303,129.888271 87.9383323,140.489785 C36.6209562,149.835163 1.37026589,190.347151 1.37026589,243.637513 C1.37026589,297.32905 39.159532,339.202398 91.9434947,347.377138 C94.646486,348.317595 97.5533527,348.830571 100.578598,348.830571 L338.724633,348.830571 C401.241995,348.830571 448.383217,303.609723 448.383217,243.637513 C448.383217,182.685387 402.261372,138.444455 338.724633,138.444455 L338.724633,138.444455 Z M338.724633,296.217601 L111.02885,296.217601 C71.8321867,296.217601 53.9832364,268.964082 53.9832364,243.637513 C53.9832364,212.18811 76.9093383,191.057426 111.02885,191.057426 C125.247505,191.057426 136.894701,179.75879 137.322182,165.546712 C137.545787,158.101976 141.485183,92.8224333 209.263842,92.8224333 C238.141787,92.8224333 258.305708,103.890887 270.886784,126.65915 C281.415955,145.705045 282.665513,165.882119 282.67209,165.934732 C283.303445,179.988972 294.884875,191.057426 308.952268,191.057426 L338.724633,191.057426 C372.850721,191.057426 395.770246,212.18811 395.770246,243.637513 C395.770246,268.964082 377.921296,296.217601 338.724633,296.217601 L338.724633,296.217601 Z" id="Fill-38" sketch:type="MSShapeGroup"></path>
            <path d="M518.983247,68.357402 L514.925471,68.357402 C513.143207,61.3467237 510.328413,53.0536042 505.889194,44.6815652 C490.631432,15.8825405 463.292417,0.019729864 428.929571,0.019729864 C394.468075,0.019729864 367.273746,15.9548833 352.364546,44.8854405 C341.828798,65.351886 340.934378,85.2856252 340.862035,87.4887934 C340.533204,98.3336419 349.023622,107.343613 359.868471,107.73821 C370.51602,108.165691 379.835093,99.6423896 380.302033,88.8041177 C380.657171,80.5701878 384.655756,39.4794578 428.929571,39.4794578 C473.466451,39.4794578 478.096392,80.8069461 478.569909,88.9751098 C479.043425,99.5174338 487.724566,107.81713 498.280043,107.81713 L518.983247,107.81713 C542.21845,107.81713 557.232876,121.614881 557.232876,142.969171 C557.232876,159.897394 545.256849,178.114635 518.983247,178.114635 L495.517862,178.114635 C484.6204,178.114635 475.787998,186.947038 475.787998,197.844499 C475.787998,208.741961 484.6204,217.574363 495.517862,217.574363 L518.983247,217.574363 C563.289945,217.574363 596.692604,185.500181 596.692604,142.969171 C596.692604,99.7344623 564.013373,68.357402 518.983247,68.357402" id="Fill-39" sketch:type="MSShapeGroup"></path>
        </g>
    </g>
</svg>