<?xml version="1.0" encoding="UTF-8" standalone="no"?>
<svg width="602px" height="435px" viewBox="0 0 602 435" version="1.1" xmlns="http://www.w3.org/2000/svg" xmlns:xlink="http://www.w3.org/1999/xlink" xmlns:sketch="http://www.bohemiancoding.com/sketch/ns">
    <!-- Generator: Sketch 3.5.2 (25235) - http://www.bohemiancoding.com/sketch -->
    <title>fog@2x</title>
    <desc>Created with Sketch.</desc>
    <defs></defs>
    <g id="Page-1" stroke="none" stroke-width="1" fill="none" fill-rule="evenodd" sketch:type="MSPage">
        <g id="fog" sketch:type="MSLayerGroup" transform="translate(0.902798, 2.650444)" fill="#FFFFFF">
            <path d="M483.108735,103.831231 L475.123994,103.831231 C472.424627,92.7928756 468.046126,79.5085898 460.918664,66.0613501 C437.715445,22.2692592 396.140944,-1.84791877 343.839826,-1.84791877 C278.785793,-1.84791877 231.833813,34.8663046 215.014136,98.8788497 C211.046563,114.019393 220.086962,129.521269 235.227505,133.495927 C250.353879,137.456416 265.848669,128.423101 269.837498,113.289643 C285.19059,54.8317005 329.336928,54.8317005 343.839826,54.8317005 C374.886087,54.8317005 396.551872,66.7273356 410.084131,91.2058462 C421.405885,111.688444 422.744941,133.382568 422.752026,133.446333 C423.439266,148.586876 435.915867,160.510851 451.07058,160.510851 L483.108735,160.510851 C519.787534,160.510851 544.421913,183.225208 544.421913,217.027516 C544.421913,244.254988 525.235862,273.551267 483.108735,273.551267 L28.1060062,273.551267 C12.4553463,273.551267 -0.23380343,286.240416 -0.23380343,301.891076 C-0.23380343,317.541736 12.4553463,330.230886 28.1060062,330.230886 L483.108735,330.230886 C550.373273,330.230886 601.101533,281.564348 601.101533,217.027516 C601.101533,151.442112 551.478526,103.831231 483.108735,103.831231" id="Fill-393" sketch:type="MSShapeGroup"></path>
            <path d="M100.400861,228.476799 L337.534218,228.476799 C353.184878,228.476799 365.874028,215.780565 365.874028,200.129905 C365.874028,184.48633 353.184878,171.79718 337.534218,171.79718 L100.400861,171.79718 C84.7502008,171.79718 72.061051,184.48633 72.061051,200.129905 C72.061051,215.780565 84.7502008,228.476799 100.400861,228.476799" id="Fill-394" sketch:type="MSShapeGroup"></path>
            <path d="M439.160775,375.305353 L141.713218,375.305353 C126.062558,375.305353 113.373409,387.994503 113.373409,403.645163 C113.373409,419.295823 126.062558,431.984972 141.713218,431.984972 L439.160775,431.984972 C454.811435,431.984972 467.500585,419.295823 467.500585,403.645163 C467.500585,387.994503 454.811435,375.305353 439.160775,375.305353" id="Fill-395" sketch:type="MSShapeGroup"></path>
        </g>
    </g>
</svg>