<?xml version="1.0" encoding="UTF-8" standalone="no"?>
<svg width="601px" height="595px" viewBox="0 0 601 595" version="1.1" xmlns="http://www.w3.org/2000/svg" xmlns:xlink="http://www.w3.org/1999/xlink" xmlns:sketch="http://www.bohemiancoding.com/sketch/ns">
    <!-- Generator: Sketch 3.5.2 (25235) - http://www.bohemiancoding.com/sketch -->
    <title>hail</title>
    <desc>Created with Sketch.</desc>
    <defs></defs>
    <g id="Page-1" stroke="none" stroke-width="1" fill="none" fill-rule="evenodd" sketch:type="MSPage">
        <g id="hail" sketch:type="MSLayerGroup" transform="translate(-1.978999, -0.409430)" fill="#FFFFFF">
            <path d="M455.321476,132.454751 L445.335543,132.454751 C441.974554,118.693218 436.514048,102.108807 427.621981,85.3303233 C398.696298,30.7429109 346.861192,0.688076627 281.661521,0.688076627 C216.294241,0.688076627 164.732602,30.8752333 136.494996,85.6920046 C127.347105,103.449674 122.027743,120.977985 118.922577,135.198236 C50.0708069,147.73358 2.79641399,202.082813 2.79641399,273.563388 C2.79641399,319.196983 24.4620063,361.83127 60.7448161,387.625322 C76.632329,398.934478 98.6684241,395.202986 109.942295,379.315473 C121.24263,363.42796 117.519959,341.400687 101.632446,330.109173 C83.6718822,317.335648 73.3683758,296.728635 73.3683758,273.563388 C73.3683758,231.378998 104.120108,203.026713 149.894847,203.026713 C168.966919,203.026713 184.580966,187.871384 185.163185,168.808133 C185.463116,158.8222 190.747191,71.2600384 281.661521,71.2600384 C320.405528,71.2600384 347.434589,86.1066149 364.318931,116.646631 C378.450967,142.193681 380.118229,169.258029 380.127051,169.328601 C380.982736,188.180136 396.517389,203.026713 415.377746,203.026713 L455.321476,203.026713 C501.087393,203.026713 531.847947,231.378998 531.847947,273.563388 C531.847947,308.55826 509.21199,335.560857 474.181833,342.353408 C455.04801,346.058436 442.556772,364.583576 446.2618,383.717399 C449.534575,400.575277 464.301758,412.290222 480.868526,412.290222 C483.091543,412.290222 485.358667,412.069685 487.625791,411.637432 C555.216088,398.52869 602.411087,341.753546 602.411087,273.563388 C602.411087,191.805771 540.554763,132.454751 455.321476,132.454751" id="Fill-198" sketch:type="MSShapeGroup"></path>
            <path d="M210.639663,280.408869 C194.169931,275.9893 177.241482,285.719409 172.795448,302.180319 L142.881758,413.16355 C138.435725,429.633282 148.183477,446.579374 164.653208,451.016586 C167.343764,451.739949 170.043142,452.092809 172.707233,452.092809 C186.318801,452.092809 198.783573,443.01549 202.497423,429.245136 L232.411113,318.261905 C236.857147,301.792173 227.109395,284.846081 210.639663,280.408869" id="Fill-199" sketch:type="MSShapeGroup"></path>
            <path d="M130.416985,474.525871 C124.674192,480.259843 121.41906,488.199189 121.41906,496.314964 C121.41906,504.43074 124.674192,512.370086 130.416985,518.104057 C136.150957,523.926244 144.178518,527.190197 152.294294,527.190197 C160.410069,527.190197 168.43763,523.926244 174.083387,518.104057 C179.905574,512.370086 183.169527,504.43074 183.169527,496.314964 C183.169527,488.199189 179.905574,480.259843 174.083387,474.525871 C162.703658,462.969712 141.973144,462.969712 130.416985,474.525871" id="Fill-200" sketch:type="MSShapeGroup"></path>
            <path d="M211.927601,542.451384 C206.184808,548.185356 202.841461,556.124702 202.841461,564.328692 C202.841461,572.444468 206.184808,580.383814 211.927601,586.117786 C217.652752,591.851757 225.600919,595.203926 233.716694,595.203926 C241.83247,595.203926 249.771816,591.851757 255.594003,586.117786 C261.319153,580.383814 264.591928,572.444468 264.591928,564.328692 C264.591928,556.124702 261.319153,548.185356 255.594003,542.451384 C244.037844,530.98344 223.395545,530.98344 211.927601,542.451384" id="Fill-201" sketch:type="MSShapeGroup"></path>
            <path d="M329.332881,474.437656 C323.607731,480.171628 320.343778,488.199189 320.343778,496.314964 C320.343778,504.43074 323.607731,512.4583 329.332881,518.104057 C335.163889,523.926244 343.103235,527.190197 351.219011,527.190197 C359.334786,527.190197 367.265311,523.926244 373.008104,518.104057 C378.742076,512.370086 382.094244,504.43074 382.094244,496.314964 C382.094244,488.199189 378.742076,480.259843 373.008104,474.437656 C361.451945,462.969712 340.897861,462.969712 329.332881,474.437656" id="Fill-202" sketch:type="MSShapeGroup"></path>
            <path d="M292.079707,348.378489 C275.645261,343.976563 258.681526,353.689029 254.235492,370.14994 L224.304159,481.141992 C219.858125,497.611724 229.614699,514.557816 246.075609,518.995028 C248.766165,519.718391 251.465543,520.071251 254.129634,520.071251 C267.741202,520.071251 280.205974,510.993932 283.919824,497.223578 L313.851157,386.231525 C318.297191,369.770615 308.540617,352.824523 292.079707,348.378489" id="Fill-203" sketch:type="MSShapeGroup"></path>
            <path d="M409.546737,280.408869 C393.085827,275.9893 376.148556,285.719409 371.702523,302.180319 L341.788832,413.16355 C337.342799,429.633282 347.090551,446.579374 363.551461,451.016586 C366.250839,451.739949 368.950216,452.092809 371.614308,452.092809 C385.225875,452.092809 397.690648,443.01549 401.395676,429.245136 L431.318187,318.261905 C435.764221,301.792173 426.016469,284.846081 409.546737,280.408869" id="Fill-204" sketch:type="MSShapeGroup"></path>
        </g>
    </g>
</svg>