<?xml version="1.0" encoding="UTF-8" standalone="no"?>
<svg width="601px" height="589px" viewBox="0 0 601 589" version="1.1" xmlns="http://www.w3.org/2000/svg" xmlns:xlink="http://www.w3.org/1999/xlink" xmlns:sketch="http://www.bohemiancoding.com/sketch/ns">
    <!-- Generator: Sketch 3.5.2 (25235) - http://www.bohemiancoding.com/sketch -->
    <title>heavy-rain</title>
    <desc>Created with Sketch.</desc>
    <defs></defs>
    <g id="Page-1" stroke="none" stroke-width="1" fill="none" fill-rule="evenodd" sketch:type="MSPage">
        <g id="heavy-rain" sketch:type="MSLayerGroup" transform="translate(-1.978999, 2.341351)" fill="#FFFFFF">
            <path d="M455.319676,129.571171 L445.333783,129.571171 C441.972807,115.800871 436.512323,99.2253472 427.620291,82.4469296 C398.694722,27.8597329 346.859821,-2.20380397 281.660408,-2.20380397 C216.293387,-2.20380397 164.731951,27.9920548 136.494456,82.8086095 C127.346602,100.566209 122.027261,118.094451 118.922107,132.314645 C50.070609,144.84994 2.79640293,199.198957 2.79640293,270.679251 C2.79640293,316.303844 24.4619096,358.946783 60.744576,384.740733 C76.6408476,396.041024 98.6680341,392.318368 109.94186,376.430918 C121.242151,360.543467 117.519495,338.516281 101.632045,327.224812 C83.6715515,314.451337 73.3680858,293.844406 73.3680858,270.679251 C73.3680858,228.486206 104.119697,200.142854 149.894254,200.142854 C168.966252,200.142854 184.580237,184.987585 185.162453,165.924409 C185.462383,155.938516 190.746437,68.3678789 281.660408,68.3678789 C320.404262,68.3678789 347.433216,83.2232181 364.317491,113.763114 C378.449471,139.310063 380.116727,166.365482 380.125548,166.444875 C380.98123,185.296336 396.515822,200.142854 415.376104,200.142854 L455.319676,200.142854 C501.085413,200.142854 531.837024,228.486206 531.837024,270.679251 C531.837024,305.673984 509.209978,332.676474 474.179959,339.468999 C455.046211,343.174012 442.555023,361.690257 446.260037,380.824005 C449.532798,397.690637 464.299923,409.405536 480.866626,409.405536 C483.089634,409.405536 485.356749,409.185 487.623864,408.743927 C555.213894,395.644058 602.408706,338.869139 602.408706,270.679251 C602.408706,188.921956 540.552626,129.571171 455.319676,129.571171" id="Fill-183" sketch:type="MSShapeGroup"></path>
            <path d="M181.104581,370.114752 C183.777484,370.82929 186.468029,371.173327 189.114467,371.173327 C202.743623,371.173327 215.22599,362.06958 218.922182,348.281638 L229.366791,309.33489 C233.7687,292.865224 224.003343,275.936841 207.533676,271.517289 C191.055188,267.115381 174.126806,276.880737 169.716076,293.341582 L159.271467,332.28833 C154.860737,348.766818 164.634915,365.6952 181.104581,370.114752" id="Fill-184" sketch:type="MSShapeGroup"></path>
            <path d="M416.390572,271.517289 C399.903262,267.115381 382.97488,276.880737 378.56415,293.341582 L368.128362,332.28833 C363.717632,348.766818 373.482989,365.6952 389.961477,370.114752 C392.634379,370.82929 395.324925,371.173327 397.971363,371.173327 C411.600519,371.173327 424.082885,362.06958 427.779077,348.281638 L438.214865,309.33489 C442.625595,292.865224 432.860238,275.936841 416.390572,271.517289" id="Fill-185" sketch:type="MSShapeGroup"></path>
            <path d="M292.713698,343.226941 C276.23521,338.807389 259.32447,348.590389 254.896097,365.051234 L244.451488,403.98916 C240.040758,420.458826 249.814936,437.39603 266.284602,441.80676 C268.966326,442.53012 271.64805,442.874157 274.294488,442.874157 C287.923645,442.874157 300.39719,433.77041 304.102203,419.982467 L314.546812,381.044541 C318.957542,364.574875 309.183364,347.646492 292.713698,343.226941" id="Fill-186" sketch:type="MSShapeGroup"></path>
            <path d="M169.054466,414.936592 C152.567157,410.525862 135.647596,420.291218 131.236866,436.752063 L120.783435,475.68999 C116.363884,492.159656 126.12924,509.09686 142.607728,513.516412 C145.280631,514.23095 147.979998,514.583808 150.626436,514.583808 C164.255592,514.583808 176.729137,505.488883 180.43415,491.70094 L190.878759,452.763014 C195.298311,436.293348 185.532954,419.356144 169.054466,414.936592" id="Fill-187" sketch:type="MSShapeGroup"></path>
            <path d="M377.911362,414.936592 C361.415231,410.525862 344.504491,420.291218 340.08494,436.752063 L329.640331,475.68999 C325.220779,492.159656 334.986136,509.09686 351.455802,513.516412 C354.137526,514.23095 356.836893,514.583808 359.47451,514.583808 C373.103666,514.583808 385.577211,505.488883 389.282224,491.70094 L399.735655,452.763014 C404.155206,436.293348 394.38985,419.356144 377.911362,414.936592" id="Fill-188" sketch:type="MSShapeGroup"></path>
            <path d="M254.243309,486.637422 C237.756,482.21787 220.84526,491.992048 216.416887,508.461715 L205.963456,547.408462 C201.543905,563.869307 211.318083,580.806511 227.787749,585.226063 C230.460652,585.940601 233.160019,586.284638 235.806457,586.284638 C249.435613,586.284638 261.909158,577.198534 265.614171,563.40177 L276.05878,524.455022 C280.478332,507.985356 270.712975,491.056973 254.243309,486.637422" id="Fill-189" sketch:type="MSShapeGroup"></path>
        </g>
    </g>
</svg>