<?xml version="1.0" encoding="UTF-8" standalone="no"?>
<svg width="600px" height="567px" viewBox="0 0 600 567" version="1.1" xmlns="http://www.w3.org/2000/svg" xmlns:xlink="http://www.w3.org/1999/xlink" xmlns:sketch="http://www.bohemiancoding.com/sketch/ns">
    <!-- Generator: Sketch 3.5.2 (25235) - http://www.bohemiancoding.com/sketch -->
    <title>light-rain</title>
    <desc>Created with Sketch.</desc>
    <defs></defs>
    <g id="Page-1" stroke="none" stroke-width="1" fill="none" fill-rule="evenodd" sketch:type="MSPage">
        <g id="light-rain" sketch:type="MSLayerGroup" transform="translate(-1.316340, 0.598055)" fill="#FFFFFF">
            <path d="M492.639899,212.039237 C492.639899,155.015112 446.254455,108.623052 389.223714,108.623052 C368.495487,108.629668 348.501647,114.74294 331.399041,126.301259 C322.315142,132.440995 319.933348,144.773397 326.073084,153.857295 C332.192973,162.934578 344.538606,165.342837 353.629121,159.189868 C364.148713,152.084182 376.45465,148.32624 389.23033,148.319624 C424.361796,148.319624 452.943327,176.907771 452.943327,212.039237 C452.943327,222.426507 450.535069,232.317569 445.77148,241.447781 C440.710167,251.160209 444.481342,263.155189 454.200385,268.223118 C457.131316,269.751436 460.267345,270.472591 463.357061,270.472591 C470.522293,270.472591 477.436112,266.582327 480.975723,259.794213 C488.610697,245.152794 492.639899,228.63902 492.639899,212.039237" id="Fill-151" sketch:type="MSShapeGroup"></path>
            <path d="M389.23033,77.50094 C400.1932,77.50094 409.078616,68.6221401 409.078616,57.6526542 L409.078616,19.8416697 C409.078616,8.87218376 400.1932,-0.00661609527 389.23033,-0.00661609527 C378.260844,-0.00661609527 369.382044,8.87218376 369.382044,19.8416697 L369.382044,57.6526542 C369.382044,68.6221401 378.260844,77.50094 389.23033,77.50094" id="Fill-152" sketch:type="MSShapeGroup"></path>
            <path d="M581.427898,192.190951 L543.610297,192.190951 C532.640811,192.190951 523.762011,201.076367 523.762011,212.039237 C523.762011,223.008723 532.640811,231.887523 543.610297,231.887523 L581.427898,231.887523 C592.397383,231.887523 601.276183,223.008723 601.276183,212.039237 C601.276183,201.076367 592.397383,192.190951 581.427898,192.190951" id="Fill-153" sketch:type="MSShapeGroup"></path>
            <path d="M498.402518,122.728567 C503.477063,122.728567 508.56484,120.790051 512.441872,116.913019 L539.177513,90.1641463 C546.924961,82.4166988 546.924961,69.8461178 539.170897,62.0920541 C531.416833,54.3512226 518.846252,54.3446065 511.092189,62.0986702 L484.356548,88.8475434 C476.615716,96.601607 476.615716,109.165572 484.363164,116.919636 C488.240196,120.790051 493.321357,122.728567 498.402518,122.728567" id="Fill-154" sketch:type="MSShapeGroup"></path>
            <path d="M512.441872,307.165455 C504.687808,299.411391 492.117227,299.418007 484.363164,307.158839 C476.615716,314.912903 476.615716,327.483484 484.356548,335.230931 L511.092189,361.979804 C514.969221,365.856836 520.056998,367.795352 525.138159,367.795352 C530.212704,367.795352 535.293865,365.856836 539.170897,361.98642 C546.924961,354.238973 546.924961,341.668392 539.177513,333.914328 L512.441872,307.165455" id="Fill-155" sketch:type="MSShapeGroup"></path>
            <path d="M266.025404,116.913019 C269.89582,120.790051 274.983597,122.728567 280.064758,122.728567 C285.139303,122.728567 290.220464,120.790051 294.097496,116.919636 C301.85156,109.165572 301.85156,96.601607 294.104112,88.8475434 L267.368471,62.0986702 C259.614408,54.3446065 247.043827,54.3512226 239.289763,62.0920541 C231.542315,69.8461178 231.542315,82.4166988 239.283147,90.1641463 L266.025404,116.913019" id="Fill-156" sketch:type="MSShapeGroup"></path>
            <path d="M219.421629,461.452797 C214.241226,461.452797 209.365164,463.874288 206.235751,468.002731 C200.082782,476.12068 180.009549,504.192772 180.009549,524.398327 C180.009549,550.426046 200.049702,565.97387 219.421629,565.97387 C238.78694,565.97387 258.827092,550.426046 258.827092,524.398327 C258.827092,504.192772 238.753859,476.12068 232.607507,468.002731 C229.478094,463.874288 224.602031,461.452797 219.421629,461.452797" id="Fill-157" sketch:type="MSShapeGroup"></path>
            <path d="M166.426706,385.361085 C161.411705,378.74499 150.336362,378.74499 145.321362,385.361085 C140.657015,391.52067 125.420147,412.844345 125.420147,428.312776 C125.420147,448.399241 140.90181,460.400838 155.874034,460.400838 C170.846257,460.400838 186.334536,448.399241 186.334536,428.312776 C186.334536,412.844345 171.091053,391.52067 166.426706,385.361085" id="Fill-158" sketch:type="MSShapeGroup"></path>
            <path d="M259.965061,346.610615 C256.862112,346.610615 253.931182,348.066156 252.058827,350.547192 C248.009776,355.892997 234.80405,374.351903 234.80405,387.491468 C234.80405,404.14418 247.592962,414.094787 259.965061,414.094787 L259.971677,414.094787 C272.350391,414.094787 285.139303,404.14418 285.139303,387.491468 C285.139303,378.989785 270.74268,346.610615 259.965061,346.610615" id="Fill-159" sketch:type="MSShapeGroup"></path>
            <path d="M341.124701,248.527003 L333.635281,248.527003 C331.114549,238.199278 327.019186,225.767635 320.350162,213.183822 C298.655986,172.25004 259.77981,149.695772 210.886866,149.695772 C161.854984,149.695772 123.190523,172.342666 102.005786,213.455082 C95.1448952,226.773281 91.1553898,239.919463 88.8265242,250.584608 C37.1945168,259.98608 1.73224612,300.747843 1.73224612,354.358063 C1.73224612,392.685103 21.1901823,426.71168 53.7678354,445.375685 C66.45089,452.646774 82.627243,448.240454 89.8850995,435.564016 C97.1561882,422.880961 92.7631009,406.711224 80.0800463,399.446752 C64.1683372,390.336389 54.6610083,373.478578 54.6610083,354.358063 C54.6610083,322.719895 77.7313325,301.455765 112.055635,301.455765 C126.359633,301.455765 138.076737,290.089313 138.506784,275.791931 C138.731731,268.302511 142.694772,202.624534 210.886866,202.624534 C239.93814,202.624534 260.216472,213.759422 272.879679,236.67096 C283.472047,255.831172 284.729105,276.129352 284.735721,276.182281 C285.370866,290.320877 297.02181,301.455765 311.173638,301.455765 L341.124701,301.455765 C375.45562,301.455765 398.519328,322.719895 398.519328,354.358063 C398.519328,379.836645 380.556629,407.253744 341.124701,407.253744 L326.344344,407.253744 C311.72939,407.253744 299.879963,419.103171 299.879963,433.718125 C299.879963,448.33308 311.72939,460.182506 326.344344,460.182506 L341.124701,460.182506 C404.017303,460.182506 451.44809,414.690235 451.44809,354.358063 C451.44809,293.040092 405.049414,248.527003 341.124701,248.527003" id="Fill-160" sketch:type="MSShapeGroup"></path>
        </g>
    </g>
</svg>