<?xml version="1.0" encoding="UTF-8" standalone="no"?>
<svg width="596px" height="458px" viewBox="0 0 596 458" version="1.1" xmlns="http://www.w3.org/2000/svg" xmlns:xlink="http://www.w3.org/1999/xlink" xmlns:sketch="http://www.bohemiancoding.com/sketch/ns">
    <!-- Generator: Sketch 3.5.2 (25235) - http://www.bohemiancoding.com/sketch -->
    <title>partly-cloudy-night@2x</title>
    <desc>Created with Sketch.</desc>
    <defs></defs>
    <g id="Page-1" stroke="none" stroke-width="1" fill="none" fill-rule="evenodd" sketch:type="MSPage">
        <g id="partly-cloudy-night" sketch:type="MSLayerGroup" transform="translate(-1.940271, -1.223554)" fill="#FFFFFF">
            <path d="M339.397291,248.841039 L331.952583,248.841039 C329.446899,238.581547 325.369409,226.224121 318.746776,213.715433 C297.182113,173.026026 258.538028,150.619559 209.936974,150.619559 C161.204388,150.619559 122.764177,173.118098 101.712489,213.985074 C94.892558,227.217187 90.9268699,240.284886 88.6119076,250.886361 C37.2947192,260.231706 2.0507345,300.756698 2.0507345,354.040289 C2.0507345,407.731629 39.8398624,449.598247 92.6170554,457.779534 C95.3200369,458.713411 98.2268928,459.226386 101.252128,459.226386 L339.397291,459.226386 C401.907848,459.226386 449.048897,414.005703 449.048897,354.040289 C449.048897,293.088386 402.933797,248.841039 339.397291,248.841039 L339.397291,248.841039 Z M339.397291,406.613608 L111.702341,406.613608 C72.5123976,406.613608 54.6635126,379.366765 54.6635126,354.040289 C54.6635126,322.591001 77.582954,301.453817 111.702341,301.453817 C125.920944,301.453817 137.561521,290.155223 137.995576,275.943197 C138.219181,268.498488 142.158563,203.232337 209.936974,203.232337 C238.814812,203.232337 258.972083,214.294174 271.55969,237.062354 C282.088822,256.101603 283.338376,276.278603 283.344953,276.331216 C283.976306,290.385404 295.557694,301.453817 309.625035,301.453817 L339.397291,301.453817 C373.510101,301.453817 396.436119,322.591001 396.436119,354.040289 C396.436119,379.366765 378.587234,406.613608 339.397291,406.613608 L339.397291,406.613608 Z" id="Fill-437" sketch:type="MSShapeGroup"></path>
            <path d="M594.089173,218.720224 C590.130062,212.722367 583.191751,209.269653 576.06272,209.927313 C532.76898,213.39318 490.698488,191.308966 468.982563,153.69083 C447.260063,116.072694 449.160699,68.6291211 473.816362,32.8261256 C477.900429,26.907188 478.433134,19.2388756 475.217178,12.8069635 C472.001222,6.38162799 465.54958,2.21206533 458.367935,1.91611845 C427.832794,0.732330945 397.560717,8.12442627 371.010994,23.4544745 C334.149166,44.7363432 307.540254,79.0267213 296.083821,120.005499 C293.157236,130.501748 299.280048,141.386017 309.776297,144.319179 C320.272546,147.239188 331.150238,141.116376 334.089977,130.626703 C342.751356,99.6377772 362.869167,73.7128308 390.734209,57.6264739 C401.118656,51.6351937 412.239682,47.2354502 423.761881,44.5193155 C408.510752,86.4056635 412.009501,133.921579 434.810564,173.420622 C457.618203,212.913088 497.018598,239.699569 540.923961,247.433647 C532.80844,256.062143 523.430212,263.500275 513.039188,269.498131 C503.588618,274.95013 493.533001,279.113116 483.135401,281.855557 C472.599692,284.630882 466.319042,295.429654 469.100942,305.965363 C471.435634,314.810886 479.419623,320.664058 488.159921,320.664058 C489.8238,320.664058 491.527139,320.453607 493.210748,319.999822 C506.975566,316.36954 520.286599,310.878081 532.762404,303.676707 C559.32528,288.340082 580.889942,265.887579 595.108546,238.752539 C598.442881,232.386393 598.054861,224.711504 594.089173,218.720224" id="Fill-438" sketch:type="MSShapeGroup"></path>
        </g>
    </g>
</svg>