<?xml version="1.0" encoding="UTF-8" standalone="no"?>
<svg width="224px" height="172px" viewBox="0 0 224 172" version="1.1" xmlns="http://www.w3.org/2000/svg" xmlns:xlink="http://www.w3.org/1999/xlink" xmlns:sketch="http://www.bohemiancoding.com/sketch/ns">
    <!-- Generator: Sketch 3.5.2 (25235) - http://www.bohemiancoding.com/sketch -->
    <title>partly-cloudy</title>
    <desc>Created with Sketch.</desc>
    <defs></defs>
    <g id="Page-1" stroke="none" stroke-width="1" fill="none" fill-rule="evenodd" sketch:type="MSPage">
        <g id="partly-cloudy" sketch:type="MSLayerGroup" transform="translate(0.683660, 0.202568)" fill="#FFFFFF">
            <path d="M126.094858,92.8406623 L123.301166,92.8406623 C122.360886,89.0007375 120.830773,84.3731359 118.345572,79.6938429 C110.253244,64.4621413 95.7517136,56.0758441 77.5137441,56.0758441 C59.2264161,56.0758441 44.8038594,64.4990637 36.9015619,79.794764 C34.3423232,84.7472824 32.8541641,89.6382635 31.9854543,93.6061857 C12.7306995,97.1039634 -0.494913259,112.269205 -0.494913259,132.212199 C-0.494913259,152.307805 13.6833188,167.977652 33.485953,171.039746 C34.5027384,171.391739 35.5935614,171.583735 36.7288072,171.583735 L126.094858,171.583735 C149.55249,171.583735 167.24258,154.658528 167.24258,132.212199 C167.24258,109.399107 149.937486,92.8406623 126.094858,92.8406623 L126.094858,92.8406623 Z M126.094858,151.891813 L40.6503408,151.891813 C25.9464406,151.891813 19.2484908,141.691398 19.2484908,132.212199 C19.2484908,120.441352 27.8492112,112.532584 40.6503408,112.532584 C45.9415731,112.532584 50.2949937,108.31359 50.514639,103.041078 C50.5195749,102.964772 50.8749562,95.4326115 54.7076445,88.3312122 C59.2708387,79.8759932 66.7289096,75.767766 77.5137441,75.767766 C88.350405,75.767766 95.9145967,79.9104541 100.638206,88.4321333 C104.589355,95.560609 105.055793,103.107538 105.060729,103.129691 C105.297649,108.389896 109.643666,112.532584 114.922559,112.532584 L126.094858,112.532584 C138.898455,112.532584 147.499176,120.441352 147.499176,132.212199 C147.499176,141.691398 140.801226,151.891813 126.094858,151.891813 L126.094858,151.891813 Z" id="Fill-40" sketch:type="MSShapeGroup"></path>
            <path d="M182.378367,79.2630821 C182.378367,58.0474978 165.073273,40.7875282 143.799755,40.7875282 C136.067745,40.7899897 128.609674,43.0619452 122.230086,47.3646301 C118.841625,49.6488931 117.953171,54.2395724 120.243406,57.616737 C122.536109,60.9963631 127.136322,61.884961 130.522316,59.6006981 C134.446318,56.9545961 139.036659,55.5589311 143.802223,55.5564696 C156.906908,55.5564696 167.570814,66.1901075 167.570814,79.2630821 C167.570814,83.1251603 166.667553,86.8050882 164.895583,90.2044062 C163.005152,93.8203354 164.411869,98.2805557 168.037252,100.166057 C169.130543,100.734661 170.300339,101.002964 171.452861,101.002964 C174.125624,101.002964 176.707074,99.5556077 178.024946,97.0301187 C180.872932,91.5803793 182.378367,85.4364996 182.378367,79.2630821" id="Fill-41" sketch:type="MSShapeGroup"></path>
            <path d="M143.802223,29.2086781 C147.891576,29.2086781 151.206,25.9028967 151.206,21.8242074 L151.206,7.75432921 C151.206,3.67563989 147.891576,0.369858499 143.802223,0.369858499 C139.710403,0.369858499 136.398447,3.67563989 136.398447,7.75432921 L136.398447,21.8242074 C136.398447,25.9028967 139.710403,29.2086781 143.802223,29.2086781" id="Fill-42" sketch:type="MSShapeGroup"></path>
            <path d="M215.500395,71.8786114 L201.391265,71.8786114 C197.301912,71.8786114 193.987488,75.1843928 193.987488,79.2630821 C193.987488,83.3417715 197.301912,86.6475528 201.391265,86.6475528 L215.500395,86.6475528 C219.589748,86.6475528 222.904172,83.3417715 222.904172,79.2630821 C222.904172,75.1843928 219.589748,71.8786114 215.500395,71.8786114" id="Fill-43" sketch:type="MSShapeGroup"></path>
            <path d="M184.52793,46.0329639 C186.420829,46.0329639 188.318664,45.3117473 189.764868,43.8717755 L199.737755,33.9199704 C202.627696,31.0351039 202.627696,26.3607339 199.735287,23.4758674 C196.842878,20.5910008 192.15382,20.5934623 189.263879,23.4783289 L179.290992,33.4276724 C176.401051,36.312539 176.401051,40.9893704 179.29346,43.8717755 C180.739664,45.3142088 182.632563,46.0329639 184.52793,46.0329639" id="Fill-44" sketch:type="MSShapeGroup"></path>
            <path d="M189.764868,114.654389 C186.872459,111.769522 182.185869,111.771984 179.29346,114.654389 C176.401051,117.536794 176.401051,122.213625 179.290992,125.098492 L189.263879,135.047835 C190.710083,136.490269 192.60545,137.211485 194.500817,137.211485 C196.393716,137.211485 198.289083,136.490269 199.735287,135.047835 C202.627696,132.16543 202.627696,127.49106 199.737755,124.606194 L189.764868,114.654389" id="Fill-45" sketch:type="MSShapeGroup"></path>
            <path d="M97.8445144,43.869314 C99.2907188,45.3117473 101.183618,46.0329639 103.081452,46.0329639 C104.974351,46.0329639 106.869718,45.3142088 108.315922,43.8717755 C111.208331,40.9893704 111.208331,36.3150005 108.31839,33.4301339 L98.3479712,23.4783289 C95.4580305,20.5934623 90.768972,20.5910008 87.8765633,23.4758674 C84.9841546,26.3582724 84.9841546,31.0351039 87.8740954,33.9199704 L97.8445144,43.869314" id="Fill-46" sketch:type="MSShapeGroup"></path>
        </g>
    </g>
</svg>