<?xml version="1.0" encoding="UTF-8" standalone="no"?>
<svg width="187px" height="167px" viewBox="0 0 187 167" version="1.1" xmlns="http://www.w3.org/2000/svg" xmlns:xlink="http://www.w3.org/1999/xlink" xmlns:sketch="http://www.bohemiancoding.com/sketch/ns">
    <!-- Generator: Sketch 3.5.2 (25235) - http://www.bohemiancoding.com/sketch -->
    <title>Imported Layers 2</title>
    <desc>Created with Sketch.</desc>
    <defs></defs>
    <g id="Page-1" stroke="none" stroke-width="1" fill="none" fill-rule="evenodd" sketch:type="MSPage">
        <path d="M138.87945,81.7933941 C133.057987,81.5709551 129.197499,83.7387599 126.107743,88.7758331 C112.440426,111.055833 98.5009136,133.168028 84.6394502,155.328028 C81.13506,160.930955 69.6726209,164.209979 63.8609136,161.259736 C61.1760356,159.896809 61.7506697,157.701687 62.482377,155.376809 C67.5935965,139.14754 72.6443282,122.89876 77.7028648,106.652906 C79.6306697,100.464614 81.5760356,94.2802234 83.4248161,88.0675404 C84.8394502,83.3153453 83.9653039,81.9055892 79.1965234,81.8724185 C64.8931087,81.7729063 50.5896941,81.8138819 36.2853039,81.8646136 C32.4833526,81.8782721 29.4170112,83.481199 27.1438404,86.6119307 C24.9487185,89.6353453 22.5379868,92.5065648 20.4209136,95.5807112 C17.2911575,100.127053 13.197499,102.268516 7.59262093,101.880223 C2.22579166,101.509492 1.07652337,100.166077 2.56627947,94.7738819 C4.46481605,87.9007112 6.31359654,81.0070526 8.47847459,74.2158331 C10.0726209,69.2129063 10.0443282,64.3943697 8.50871849,59.4119307 C6.36042581,52.4451014 4.37603556,45.4255892 2.43164532,38.3982721 C1.04725508,33.3953453 2.32237703,31.9768087 7.41115752,31.6470526 C13.1701819,31.2733941 17.2335965,33.5055892 20.6316453,38.1455892 C32.0482307,53.7358331 28.877499,51.4002234 47.3106697,51.601199 C57.5496941,51.7124185 67.7916453,51.6665648 78.0306697,51.5768087 C84.237499,51.5221746 85.0043282,50.4665648 83.1828648,44.5953453 C76.4579868,22.9280282 69.6745721,1.27827214 62.9145721,-20.3773376 C60.8248161,-27.0700205 61.6296941,-27.6895327 68.5184746,-28.2944108 C77.1292063,-29.051484 82.5262795,-26.051484 87.0696941,-18.3666059 C99.7916453,3.14754043 113.483353,24.0880282 126.587743,45.3797356 C129.407255,49.961199 133.005304,51.6870526 138.228718,51.6343697 C153.668718,51.4802234 169.113597,51.5094916 184.553597,51.6831502 C192.317499,51.7699795 198.174084,56.2324185 199.971158,62.8216868 C201.675548,69.0694916 199.080426,75.6665648 193.484328,79.3533941 C190.51945,81.3065648 187.222865,81.9075404 183.738962,81.8743697 C179.837499,81.8363209 175.936036,81.8626624 172.034572,81.8616868 C168.297011,81.8607112 164.558475,81.8616868 160.819938,81.8616868 C153.505792,81.8607112 146.182865,82.0733941 138.87945,81.7933941 Z" id="Imported-Layers-2" fill="#FFFFFF" sketch:type="MSShapeGroup" transform="translate(101.909967, 67.201861) rotate(-33.000000) translate(-101.909967, -67.201861) "></path>
    </g>
</svg>