<?xml version="1.0" encoding="UTF-8" standalone="no"?>
<svg width="601px" height="556px" viewBox="0 0 601 556" version="1.1" xmlns="http://www.w3.org/2000/svg" xmlns:xlink="http://www.w3.org/1999/xlink" xmlns:sketch="http://www.bohemiancoding.com/sketch/ns">
    <!-- Generator: Sketch 3.5.2 (25235) - http://www.bohemiancoding.com/sketch -->
    <title>rain</title>
    <desc>Created with Sketch.</desc>
    <defs></defs>
    <g id="Page-1" stroke="none" stroke-width="1" fill="none" fill-rule="evenodd" sketch:type="MSPage">
        <g id="rain" sketch:type="MSLayerGroup" transform="translate(3.071449, 1.946102)" fill="#FFFFFF">
            <path d="M450.328291,130.11654 L440.342398,130.11654 C436.990243,116.355062 431.520937,99.7795381 422.637727,83.0011205 C393.703337,28.4139238 341.868436,-1.64961309 276.677844,-1.64961309 C211.310823,-1.64961309 159.749387,28.5374243 131.511892,83.3628004 C122.364038,101.111579 117.035876,118.648642 113.939543,132.868836 C45.088045,145.39531 -2.19498251,199.744327 -2.19498251,271.233442 C-2.19498251,322.336162 23.7489324,367.704932 67.1946247,392.58145 C84.1053642,402.276235 105.673835,396.409964 115.350977,379.508046 C125.03694,362.597307 119.179491,341.037657 102.268751,331.351694 C81.0531389,319.195722 68.3767004,296.718641 68.3767004,271.233442 C68.3767004,229.040397 99.1371326,200.688223 144.902869,200.688223 C163.974866,200.688223 179.597673,185.541776 180.171067,166.4786 C180.470997,156.492707 185.755052,68.9220698 276.677844,68.9220698 C315.412876,68.9220698 342.450652,83.7685876 359.334927,114.308483 C373.458085,139.855433 375.134163,166.919673 375.142984,166.999066 C375.998666,185.841705 391.524436,200.688223 410.39354,200.688223 L450.328291,200.688223 C496.102849,200.688223 526.85446,229.040397 526.85446,271.233442 C526.85446,305.196064 502.904195,341.761017 450.328291,341.761017 L430.621149,341.761017 C411.134543,341.761017 395.335307,357.560253 395.335307,377.046859 C395.335307,396.533465 411.134543,412.3327 430.621149,412.3327 L450.328291,412.3327 C534.185093,412.3327 597.426142,351.667517 597.426142,271.233442 C597.426142,189.467326 535.561241,130.11654 450.328291,130.11654" id="Fill-169" sketch:type="MSShapeGroup"></path>
            <path d="M288.057528,414.008778 C281.159146,414.008778 274.648908,417.246254 270.485179,422.742023 C262.272399,433.574777 235.508088,470.995411 235.508088,497.953794 C235.508088,532.648598 262.228292,553.387851 288.057528,553.387851 C313.886764,553.387851 340.598146,532.648598 340.598146,497.953794 C340.598146,470.995411 313.842656,433.574777 305.638698,422.742023 C301.466147,417.246254 294.964731,414.008778 288.057528,414.008778" id="Fill-170" sketch:type="MSShapeGroup"></path>
            <path d="M217.39763,312.561983 C210.710963,303.758166 195.943839,303.758166 189.265993,312.561983 C183.046864,320.783584 162.722219,349.20633 162.722219,369.830904 C162.722219,396.612858 183.373258,412.614987 203.327401,412.614987 C223.290366,412.614987 243.941404,396.612858 243.941404,369.830904 C243.941404,349.20633 223.61676,320.783584 217.39763,312.561983" id="Fill-171" sketch:type="MSShapeGroup"></path>
            <path d="M342.124258,260.903512 C337.978172,260.903512 334.079086,262.844233 331.573792,266.143459 C326.175058,273.271199 308.567423,297.883073 308.567423,315.402494 C308.567423,337.606109 325.628127,350.882407 342.124258,350.882407 L342.13308,350.882407 C358.629211,350.882407 375.681093,337.606109 375.681093,315.402494 C375.681093,304.066917 356.494417,260.903512 342.124258,260.903512" id="Fill-172" sketch:type="MSShapeGroup"></path>
        </g>
    </g>
</svg>