<?xml version="1.0" encoding="UTF-8" standalone="no"?>
<svg width="130px" height="129px" viewBox="0 0 130 129" version="1.1" xmlns="http://www.w3.org/2000/svg" xmlns:xlink="http://www.w3.org/1999/xlink" xmlns:sketch="http://www.bohemiancoding.com/sketch/ns">
    <!-- Generator: Sketch 3.5.2 (25235) - http://www.bohemiancoding.com/sketch -->
    <title>sleet@2x</title>
    <desc>Created with Sketch.</desc>
    <defs></defs>
    <g id="Page-1" stroke="none" stroke-width="1" fill="none" fill-rule="evenodd" sketch:type="MSPage">
        <g id="sleet" sketch:type="MSLayerGroup" transform="translate(0.021001, 0.104259)" fill="#FFFFFF">
            <path d="M97.8754159,28.4685386 L95.7288505,28.4685386 C95.0063758,25.5103743 93.8325914,21.9454071 91.9211621,18.3387222 C85.7033284,6.60467061 74.5609096,0.144115695 60.5456583,0.144115695 C46.494378,0.144115695 35.4107433,6.63311449 29.3408178,18.4164688 C27.374397,22.2336385 26.2290565,26.0015054 25.5634696,29.0582752 C10.7631669,31.7528594 0.601114149,43.435712 0.601114149,58.8010999 C0.601114149,68.6104484 5.25832661,77.7750689 13.0576405,83.3197306 C16.4728032,85.7488386 21.2096586,84.9486173 23.6330777,81.5334545 C26.0621857,78.1182918 25.2619644,73.3833327 21.8468016,70.956121 C17.986018,68.2103378 15.7711873,63.7806764 15.7711873,58.8010999 C15.7711873,49.7331886 22.3815467,43.6386117 32.2212354,43.6386117 C36.3209477,43.6386117 39.6773264,40.3808385 39.8024795,36.2830225 C39.8669523,34.1364572 41.0028115,15.3141889 60.5456583,15.3141889 C68.8740285,15.3141889 74.6841665,18.505593 78.3136065,25.0704422 C81.3514136,30.5620087 81.7098066,36.3797317 81.7117029,36.3949018 C81.89564,40.4472076 85.2349524,43.6386117 89.2891544,43.6386117 L97.8754159,43.6386117 C107.713208,43.6386117 114.323568,49.7331886 114.323568,58.8010999 C114.323568,66.3235599 109.459663,72.1280092 101.929618,73.5881287 C97.8185281,74.3864538 95.1315289,78.3667018 95.9279577,82.4796878 C96.6333661,86.1034391 99.8058077,88.6216712 103.366982,88.6216712 C103.84484,88.6216712 104.332178,88.5742647 104.819517,88.481348 C119.348654,85.6635069 129.493641,73.4591831 129.493641,58.8010999 C129.493641,41.2265701 116.197072,28.4685386 97.8754159,28.4685386" id="Fill-205" sketch:type="MSShapeGroup"></path>
            <path d="M44.6189777,60.2858708 C41.0767656,59.3244674 37.4359481,61.414145 36.4726484,64.9506683 L25.8251533,104.148241 C24.8637499,107.684764 26.9515313,111.331271 30.4899508,112.292674 C31.0721024,112.450064 31.6580465,112.525914 32.2345092,112.525914 C35.1566446,112.525914 37.8322662,110.582248 38.6362801,107.627877 L49.2837752,68.4303038 C50.2451786,64.8937805 48.155501,61.2453779 44.6189777,60.2858708" id="Fill-206" sketch:type="MSShapeGroup"></path>
            <path d="M62.878057,75.7005614 C59.3529113,74.739158 55.6969237,76.8288356 54.733624,80.3653589 L44.0880252,119.562932 C43.1266218,123.099455 45.2144031,126.745961 48.7528227,127.707365 C49.3349742,127.864754 49.9209183,127.940605 50.4954848,127.940605 C53.4176202,127.940605 56.0951381,125.996939 56.8972557,123.042567 L67.5447508,83.8449944 C68.5042579,80.3065749 66.4164766,76.6600685 62.878057,75.7005614" id="Fill-207" sketch:type="MSShapeGroup"></path>
            <path d="M89.5148093,60.2858708 C85.9763897,59.3244674 82.3317796,61.414145 81.36848,64.9506683 L70.7190886,104.148241 C69.7595815,107.684764 71.8473628,111.331271 75.3838861,112.292674 C75.9679339,112.450064 76.553878,112.525914 77.1284445,112.525914 C80.0505799,112.525914 82.7262015,110.582248 83.5302154,107.627877 L94.1777105,68.4303038 C95.1391139,64.8937805 93.0513326,61.2453779 89.5148093,60.2858708" id="Fill-208" sketch:type="MSShapeGroup"></path>
        </g>
    </g>
</svg>