<?xml version="1.0" encoding="UTF-8" standalone="no"?>
<svg width="600px" height="566px" viewBox="0 0 600 566" version="1.1" xmlns="http://www.w3.org/2000/svg" xmlns:xlink="http://www.w3.org/1999/xlink" xmlns:sketch="http://www.bohemiancoding.com/sketch/ns">
    <!-- Generator: Sketch 3.5.2 (25235) - http://www.bohemiancoding.com/sketch -->
    <title>snow@2x</title>
    <desc>Created with Sketch.</desc>
    <defs></defs>
    <g id="Page-1" stroke="none" stroke-width="1" fill="none" fill-rule="evenodd" sketch:type="MSPage">
        <g id="snow" sketch:type="MSLayerGroup" transform="translate(2.285470, 1.778677)" fill="#FFFFFF">
            <path d="M450.328291,130.285709 L440.342398,130.285709 C436.990243,116.51541 431.520937,99.9398855 422.637727,83.1614679 C393.703337,28.5742712 341.868436,-1.48044422 276.677844,-1.48044422 C211.310823,-1.48044422 159.749387,28.7065931 131.511892,83.5231478 C122.364038,101.280747 117.035876,118.808989 113.939543,133.029183 C45.088045,145.564478 -2.19498251,199.913496 -2.19498251,271.393789 C-2.19498251,310.067071 12.6779997,345.82045 39.6716684,372.055473 C53.6448616,385.631701 75.9807992,385.331771 89.5658481,371.340935 C103.150897,357.367742 102.833325,335.022983 88.8601313,321.437934 C75.6544052,308.61153 68.3767004,290.836288 68.3767004,271.393789 C68.3767004,229.200744 99.1371326,200.857392 144.902869,200.857392 C163.974866,200.857392 179.597673,185.702123 180.171067,166.638947 C180.470997,156.653054 185.755052,69.0912386 276.677844,69.0912386 C315.412876,69.0912386 342.450652,83.9377564 359.334927,114.477652 C373.458085,140.024601 375.134163,167.08002 375.142984,167.159413 C375.998666,186.010874 391.524436,200.857392 410.39354,200.857392 L450.328291,200.857392 C496.102849,200.857392 526.85446,229.200744 526.85446,271.393789 C526.85446,302.08365 509.079217,327.286562 480.471221,337.175419 C462.060833,343.544513 452.295477,363.6398 458.664571,382.059009 C463.710446,396.658526 477.38371,405.815202 492.009691,405.815202 C495.838205,405.815202 499.719648,405.1977 503.548161,403.874481 C560.570081,384.149695 597.426142,332.147187 597.426142,271.393789 C597.426142,189.636494 535.561241,130.285709 450.328291,130.285709" id="Fill-228" sketch:type="MSShapeGroup"></path>
            <path d="M280.82393,321.729042 C295.449911,321.729042 307.288311,309.881821 307.288311,295.264661 L307.288311,270.291107 C307.288311,255.673947 295.449911,243.826725 280.82393,243.826725 C266.20677,243.826725 254.359549,255.673947 254.359549,270.291107 L254.359549,295.264661 C254.359549,309.881821 266.20677,321.729042 280.82393,321.729042" id="Fill-229" sketch:type="MSShapeGroup"></path>
            <path d="M280.841573,368.429853 C271.499647,368.429853 262.413542,372.134866 255.87684,378.750962 C249.357781,385.278842 245.555732,394.364946 245.555732,403.715694 C245.555732,412.978228 249.357781,422.064332 255.87684,428.592213 C262.413542,435.208308 271.499647,439.001536 280.841573,439.001536 C290.112928,439.001536 299.190211,435.208308 305.726913,428.592213 C312.343008,422.064332 316.127415,412.978228 316.127415,403.715694 C316.127415,394.364946 312.343008,385.278842 305.726913,378.750962 C299.190211,372.134866 290.112928,368.429853 280.841573,368.429853" id="Fill-230" sketch:type="MSShapeGroup"></path>
            <path d="M280.82393,485.605311 C266.20677,485.605311 254.359549,497.461354 254.359549,512.069692 L254.359549,537.043246 C254.359549,551.660406 266.20677,563.507627 280.82393,563.507627 C295.449911,563.507627 307.288311,551.660406 307.288311,537.043246 L307.288311,512.069692 C307.288311,497.461354 295.449911,485.605311 280.82393,485.605311" id="Fill-231" sketch:type="MSShapeGroup"></path>
            <path d="M383.09112,314.072014 L361.478542,326.545559 C348.819747,333.849728 344.479588,350.028287 351.783757,362.687082 C356.688489,371.182149 365.589343,375.928094 374.737197,375.928094 C379.22732,375.928094 383.770373,374.790126 387.942923,372.381867 L409.555501,359.908322 C422.214297,352.604153 426.554455,336.416773 419.250286,323.757978 C411.946117,311.108004 395.77638,306.750202 383.09112,314.072014" id="Fill-232" sketch:type="MSShapeGroup"></path>
            <path d="M173.696116,434.961307 L152.083538,447.461316 C139.424742,454.774307 135.102227,470.961687 142.424039,483.620482 C147.328771,492.097906 156.211981,496.83503 165.359836,496.83503 C169.849959,496.83503 174.410654,495.68824 178.583205,493.279981 L200.195782,480.779972 C212.845757,473.45816 217.177094,457.27078 209.855282,444.620806 C202.533469,431.962011 186.34609,427.630673 173.696116,434.961307" id="Fill-233" sketch:type="MSShapeGroup"></path>
            <path d="M409.555501,447.452495 L387.942923,434.97895 C375.275306,427.665959 359.105569,432.006118 351.783757,444.664913 C344.479588,457.323709 348.819747,473.511089 361.478542,480.815258 L383.09112,493.288803 C387.263671,495.697062 391.815544,496.83503 396.296846,496.83503 C405.444701,496.83503 414.345554,492.089084 419.250286,483.594018 C426.554455,470.935222 422.214297,454.756664 409.555501,447.452495" id="Fill-234" sketch:type="MSShapeGroup"></path>
            <path d="M152.092359,359.899501 L173.704937,372.390689 C177.877488,374.798947 182.42054,375.945737 186.919485,375.945737 C196.058518,375.945737 204.959371,371.208613 209.864103,362.722368 C217.177094,350.063573 212.836935,333.876193 200.186961,326.563202 L178.574383,314.072014 C165.93323,306.767845 149.728208,311.081539 142.415217,323.749156 C135.102227,336.39913 139.433564,352.58651 152.092359,359.899501" id="Fill-235" sketch:type="MSShapeGroup"></path>
        </g>
    </g>
</svg>