<?xml version="1.0" encoding="UTF-8" standalone="no"?>
<svg width="601px" height="546px" viewBox="0 0 601 546" version="1.1" xmlns="http://www.w3.org/2000/svg" xmlns:xlink="http://www.w3.org/1999/xlink" xmlns:sketch="http://www.bohemiancoding.com/sketch/ns">
    <!-- Generator: Sketch 3.5.2 (25235) - http://www.bohemiancoding.com/sketch -->
    <title>thunderstorm</title>
    <desc>Created with Sketch.</desc>
    <defs></defs>
    <g id="Page-1" stroke="none" stroke-width="1" fill="none" fill-rule="evenodd" sketch:type="MSPage">
        <g id="thunderstorm" sketch:type="MSLayerGroup" transform="translate(3.071449, 1.380543)" fill="#FFFFFF">
            <path d="M450.328291,130.672292 L440.342398,130.672292 C436.990243,116.901993 431.520937,100.326469 422.637727,83.5480511 C393.703337,28.9608544 341.868436,-1.10268254 276.677844,-1.10268254 C211.310823,-1.10268254 159.749387,29.0931763 131.511892,83.9097309 C122.364038,101.667331 117.035876,119.195572 113.939543,133.415766 C45.088045,145.951062 -2.18616105,200.300079 -2.18616105,271.780372 C-2.18616105,338.047182 41.2859956,392.951952 105.991407,408.415972 C124.948726,412.950202 143.985437,401.244124 148.510846,382.295628 C153.045077,363.347131 141.34782,344.310419 122.399324,339.776189 C89.5834911,331.93391 68.3855218,305.248993 68.3855218,271.780372 C68.3855218,229.587327 99.1371326,201.243975 144.902869,201.243975 C163.974866,201.243975 179.597673,186.088706 180.171067,167.02553 C180.470997,157.039637 185.755052,69.4690003 276.677844,69.4690003 C315.412876,69.4690003 342.450652,84.3243396 359.334927,114.864235 C373.458085,140.411185 375.134163,167.466603 375.142984,167.545997 C375.989845,186.397457 391.524436,201.243975 410.39354,201.243975 L450.328291,201.243975 C496.102849,201.243975 526.85446,229.587327 526.85446,271.780372 C526.85446,305.751816 502.904195,342.307948 450.328291,342.307948 C430.841685,342.307948 415.04245,358.107183 415.04245,377.593789 C415.04245,397.080395 430.841685,412.879631 450.328291,412.879631 C534.185093,412.879631 597.426142,352.223269 597.426142,271.780372 C597.426142,190.023078 535.561241,130.672292 450.328291,130.672292" id="Fill-167" sketch:type="MSShapeGroup"></path>
            <path d="M356.300345,352.073304 L317.18599,352.073304 L365.686379,284.430346 C368.579818,280.398939 368.967962,275.08842 366.700847,270.67769 C364.433731,266.258138 359.890679,263.488199 354.933019,263.488199 L258.823208,263.488199 C253.345081,263.488199 248.431528,266.866819 246.473164,271.983266 L192.988649,411.54759 C191.436072,415.623105 191.974181,420.201443 194.44419,423.791777 C196.923021,427.37329 200.998535,429.516905 205.347515,429.516905 L205.37398,429.516905 L233.876118,429.455155 L197.143557,526.07661 C194.876442,532.048739 197.196486,538.797156 202.65697,542.105203 C204.791763,543.393137 207.164736,544.010639 209.511245,544.010639 C213.189794,544.010639 216.833057,542.484526 219.417745,539.564623 L366.198024,374.082848 C369.656036,370.183762 370.502896,364.626242 368.368103,359.871475 C366.233309,355.12553 361.513828,352.073304 356.300345,352.073304" id="Fill-168" sketch:type="MSShapeGroup"></path>
        </g>
    </g>
</svg>