<?xml version="1.0" encoding="UTF-8" standalone="no"?>
<svg width="597px" height="679px" viewBox="0 0 597 679" version="1.1" xmlns="http://www.w3.org/2000/svg" xmlns:xlink="http://www.w3.org/1999/xlink" xmlns:sketch="http://www.bohemiancoding.com/sketch/ns">
    <!-- Generator: Sketch 3.5.2 (25235) - http://www.bohemiancoding.com/sketch -->
    <title>tornado</title>
    <desc>Created with Sketch.</desc>
    <defs></defs>
    <g id="Page-1" stroke="none" stroke-width="1" fill="none" fill-rule="evenodd" sketch:type="MSPage">
        <g id="tornado" sketch:type="MSLayerGroup" transform="translate(-1.353748, 1.800521)" fill="#FFFFFF">
            <path d="M64.7238826,70.4042416 L456.83663,70.4042416 C475.587893,70.4042416 490.790931,55.2012036 490.790931,36.4499413 C490.790931,17.698679 475.587893,2.49564107 456.83663,2.49564107 L64.7238826,2.49564107 C45.9726203,2.49564107 30.7695824,17.698679 30.7695824,36.4499413 C30.7695824,55.2012036 45.9726203,70.4042416 64.7238826,70.4042416" id="Fill-161" sketch:type="MSShapeGroup"></path>
            <path d="M459.714257,186.561903 C459.714257,167.81064 444.511219,152.607602 425.759957,152.607602 L35.4382987,152.607602 C16.6870364,152.607602 1.48399843,167.81064 1.48399843,186.561903 C1.48399843,205.313165 16.6870364,220.516203 35.4382987,220.516203 L425.759957,220.516203 C444.511219,220.516203 459.714257,205.313165 459.714257,186.561903" id="Fill-162" sketch:type="MSShapeGroup"></path>
            <path d="M532.181223,302.719564 L186.118995,302.719564 C167.367732,302.719564 152.164694,317.922602 152.164694,336.673864 C152.164694,355.425126 167.367732,370.628164 186.118995,370.628164 L532.181223,370.628164 C550.932485,370.628164 566.135523,355.425126 566.135523,336.673864 C566.135523,317.922602 550.932485,302.719564 532.181223,302.719564" id="Fill-163" sketch:type="MSShapeGroup"></path>
            <path d="M559.972817,-1.74864646 L558.699531,-1.74864646 C537.605422,-1.74864646 520.500943,15.3558323 520.500943,36.4499413 C520.500943,57.5525389 537.605422,74.6485291 558.699531,74.6485291 L559.972817,74.6485291 C581.075415,74.6485291 598.171405,57.5525389 598.171405,36.4499413 C598.171405,15.3558323 581.075415,-1.74864646 559.972817,-1.74864646" id="Fill-164" sketch:type="MSShapeGroup"></path>
            <path d="M446.70976,455.513915 L246.515206,455.513915 C227.763944,455.513915 212.560906,470.716953 212.560906,489.468215 C212.560906,508.219478 227.763944,523.422515 246.515206,523.422515 L446.70976,523.422515 C465.461023,523.422515 480.664061,508.219478 480.664061,489.468215 C480.664061,470.716953 465.461023,455.513915 446.70976,455.513915" id="Fill-165" sketch:type="MSShapeGroup"></path>
            <path d="M308.065864,608.308266 L212.83254,608.308266 C194.081278,608.308266 178.87824,623.511304 178.87824,642.262566 C178.87824,661.013829 194.081278,676.216867 212.83254,676.216867 L308.065864,676.216867 C326.808638,676.216867 342.020164,661.013829 342.020164,642.262566 C342.020164,623.511304 326.808638,608.308266 308.065864,608.308266" id="Fill-166" sketch:type="MSShapeGroup"></path>
        </g>
    </g>
</svg>