<?xml version="1.0" encoding="UTF-8" standalone="no"?>
<svg width="86px" height="86px" viewBox="0 0 86 86" version="1.1" xmlns="http://www.w3.org/2000/svg" xmlns:xlink="http://www.w3.org/1999/xlink" xmlns:sketch="http://www.bohemiancoding.com/sketch/ns">
    <!-- Generator: Sketch 3.5.2 (25235) - http://www.bohemiancoding.com/sketch -->
    <title>noun_43862_cc</title>
    <desc>Created with Sketch.</desc>
    <defs></defs>
    <g id="Page-1" stroke="none" stroke-width="1" fill="none" fill-rule="evenodd" sketch:type="MSPage">
        <g id="noun_43862_cc" sketch:type="MSLayerGroup" fill="#FFFFFF">
            <path d="M43,72.062 C59.025,72.062 72.062,59.025 72.062,43 C72.062,26.975 59.025,13.938 43,13.938 C26.975,13.938 13.938,26.975 13.938,43 C13.938,59.025 26.975,72.062 43,72.062 L43,72.062 Z M43,15.812 C57.991,15.812 70.188,28.009 70.188,43 C70.188,57.991 57.991,70.188 43,70.188 C28.009,70.188 15.812,57.991 15.812,43 C15.812,28.009 28.009,15.812 43,15.812 L43,15.812 Z" id="Shape" sketch:type="MSShapeGroup"></path>
            <path d="M43.938,11.125 L43.938,1.75 C43.938,1.232 43.519,0.812 43,0.812 C42.481,0.812 42.062,1.231 42.062,1.75 L42.062,11.125 C42.062,11.643 42.481,12.063 43,12.063 C43.519,12.063 43.938,11.643 43.938,11.125 L43.938,11.125 Z" id="Shape" sketch:type="MSShapeGroup"></path>
            <path d="M43.938,84.25 L43.938,74.875 C43.938,74.357 43.519,73.937 43,73.937 C42.481,73.937 42.062,74.356 42.062,74.875 L42.062,84.25 C42.062,84.768 42.481,85.188 43,85.188 C43.519,85.188 43.938,84.768 43.938,84.25 L43.938,84.25 Z" id="Shape" sketch:type="MSShapeGroup"></path>
            <path d="M1.75,43.938 L11.125,43.938 C11.644,43.938 12.063,43.519 12.063,43 C12.063,42.481 11.644,42.062 11.125,42.062 L1.75,42.062 C1.231,42.062 0.812,42.481 0.812,43 C0.812,43.519 1.231,43.938 1.75,43.938 L1.75,43.938 Z" id="Shape" sketch:type="MSShapeGroup"></path>
            <path d="M84.25,42.062 L74.875,42.062 C74.356,42.062 73.937,42.481 73.937,43 C73.937,43.519 74.356,43.938 74.875,43.938 L84.25,43.938 C84.769,43.938 85.188,43.519 85.188,43 C85.188,42.481 84.769,42.062 84.25,42.062 L84.25,42.062 Z" id="Shape" sketch:type="MSShapeGroup"></path>
            <path d="M21.124,19.799 L14.494,13.169 C14.128,12.803 13.535,12.803 13.168,13.169 C12.803,13.535 12.803,14.128 13.168,14.495 L19.799,21.125 C19.982,21.308 20.222,21.399 20.462,21.399 C20.701,21.399 20.941,21.308 21.124,21.125 C21.49,20.758 21.49,20.165 21.124,19.799 L21.124,19.799 Z" id="Shape" sketch:type="MSShapeGroup"></path>
            <path d="M66.201,64.875 C65.835,64.509 65.242,64.509 64.876,64.875 C64.51,65.241 64.51,65.834 64.876,66.201 L71.506,72.831 C71.69,73.014 71.929,73.106 72.169,73.106 C72.408,73.106 72.648,73.014 72.832,72.831 C73.197,72.465 73.197,71.872 72.832,71.505 L66.201,64.875 L66.201,64.875 Z" id="Shape" sketch:type="MSShapeGroup"></path>
            <path d="M66.201,21.125 L72.832,14.495 C73.197,14.129 73.197,13.536 72.832,13.169 C72.465,12.803 71.872,12.803 71.506,13.169 L64.876,19.799 C64.51,20.165 64.51,20.758 64.876,21.125 C65.059,21.308 65.299,21.399 65.538,21.399 C65.778,21.399 66.019,21.308 66.201,21.125 L66.201,21.125 Z" id="Shape" sketch:type="MSShapeGroup"></path>
            <path d="M14.494,72.832 L21.124,66.202 C21.49,65.836 21.49,65.243 21.124,64.876 C20.758,64.509 20.165,64.51 19.799,64.876 L13.168,71.506 C12.803,71.872 12.803,72.465 13.168,72.832 C13.352,73.015 13.592,73.107 13.831,73.107 C14.071,73.106 14.311,73.015 14.494,72.832 L14.494,72.832 Z" id="Shape" sketch:type="MSShapeGroup"></path>
            <path d="M30.735,14.487 C30.757,14.489 30.779,14.489 30.803,14.489 C31.289,14.489 31.701,14.112 31.737,13.617 C31.913,11.138 30.746,9.79 29.719,8.601 C28.778,7.512 28.034,6.653 28.15,4.952 C28.184,4.435 27.795,3.989 27.276,3.954 C26.811,3.919 26.313,4.309 26.279,4.826 C26.112,7.296 27.275,8.642 28.3,9.826 C29.242,10.917 29.986,11.778 29.865,13.485 C29.829,14.001 30.219,14.45 30.735,14.487 L30.735,14.487 Z" id="Shape" sketch:type="MSShapeGroup"></path>
            <path d="M58.724,82.045 C58.744,82.047 58.766,82.047 58.787,82.047 C59.276,82.047 59.688,81.668 59.721,81.172 C59.886,78.704 58.724,77.36 57.699,76.173 C56.756,75.084 56.012,74.223 56.134,72.514 C56.17,71.998 55.78,71.549 55.264,71.513 C54.808,71.482 54.299,71.865 54.262,72.383 C54.086,74.864 55.253,76.212 56.282,77.4 C57.223,78.488 57.965,79.347 57.851,81.047 C57.815,81.564 58.207,82.011 58.724,82.045 L58.724,82.045 Z" id="Shape" sketch:type="MSShapeGroup"></path>
            <path d="M9.149,29.938 C10.585,30.042 11.719,30.125 12.84,31.417 C13.027,31.629 13.286,31.739 13.548,31.739 C13.767,31.739 13.986,31.664 14.163,31.51 C14.554,31.169 14.596,30.578 14.257,30.186 C12.627,28.311 10.852,28.181 9.284,28.067 C7.85,27.963 6.717,27.88 5.596,26.597 C5.25,26.207 4.66,26.172 4.273,26.507 C3.882,26.847 3.842,27.441 4.183,27.831 C5.813,29.695 7.586,29.824 9.149,29.938 L9.149,29.938 Z" id="Shape" sketch:type="MSShapeGroup"></path>
            <path d="M80.404,59.402 C80.59,59.615 80.849,59.723 81.109,59.723 C81.329,59.723 81.548,59.646 81.726,59.49 C82.117,59.15 82.157,58.558 81.814,58.168 C80.185,56.304 78.412,56.176 76.848,56.062 C75.412,55.959 74.278,55.877 73.155,54.583 C72.813,54.193 72.223,54.151 71.832,54.49 C71.441,54.831 71.399,55.422 71.738,55.814 C73.37,57.693 75.146,57.821 76.715,57.935 C78.148,58.037 79.282,58.119 80.404,59.402 L80.404,59.402 Z" id="Shape" sketch:type="MSShapeGroup"></path>
            <path d="M8.6,56.282 C7.513,57.223 6.647,57.983 4.954,57.849 C4.431,57.796 3.991,58.204 3.955,58.721 C3.92,59.237 4.309,59.686 4.826,59.721 C4.989,59.732 5.144,59.738 5.297,59.738 C7.471,59.738 8.717,58.659 9.827,57.7 C10.914,56.759 11.764,56.017 13.483,56.135 C13.937,56.175 14.448,55.783 14.485,55.265 C14.521,54.748 14.131,54.3 13.615,54.263 C11.134,54.104 9.788,55.253 8.6,56.282 L8.6,56.282 Z" id="Shape" sketch:type="MSShapeGroup"></path>
            <path d="M71.512,30.737 C71.475,31.254 71.866,31.702 72.381,31.739 C72.55,31.75 72.715,31.755 72.872,31.755 C75.045,31.755 76.29,30.678 77.4,29.719 C78.487,28.781 79.338,28.046 81.047,28.15 C81.516,28.207 82.012,27.795 82.044,27.276 C82.079,26.759 81.688,26.313 81.171,26.278 C78.706,26.108 77.356,27.276 76.172,28.301 C75.081,29.244 74.208,29.993 72.512,29.866 C72.057,29.826 71.548,30.219 71.512,30.737 L71.512,30.737 Z" id="Shape" sketch:type="MSShapeGroup"></path>
            <path d="M27.832,81.816 C29.695,80.188 29.824,78.416 29.937,76.85 C30.041,75.414 30.122,74.279 31.415,73.159 C31.805,72.819 31.847,72.227 31.508,71.835 C31.166,71.447 30.574,71.403 30.185,71.742 C28.31,73.371 28.18,75.148 28.068,76.715 C27.964,78.151 27.881,79.284 26.598,80.403 C26.207,80.744 26.167,81.337 26.508,81.727 C26.693,81.94 26.953,82.048 27.215,82.048 C27.435,82.047 27.654,81.97 27.832,81.816 L27.832,81.816 Z" id="Shape" sketch:type="MSShapeGroup"></path>
            <path d="M55.813,14.262 C57.692,12.63 57.82,10.854 57.933,9.285 C58.037,7.851 58.119,6.718 59.402,5.596 C59.793,5.256 59.833,4.664 59.49,4.274 C59.15,3.882 58.556,3.845 58.168,4.186 C56.305,5.815 56.176,7.588 56.063,9.152 C55.96,10.588 55.878,11.722 54.584,12.845 C54.194,13.186 54.152,13.777 54.491,14.169 C54.678,14.382 54.937,14.491 55.199,14.491 C55.416,14.49 55.636,14.416 55.813,14.262 L55.813,14.262 Z" id="Shape" sketch:type="MSShapeGroup"></path>
            <path d="M34.562,56.125 C34.562,56.643 34.981,57.063 35.5,57.063 L43.938,57.063 L43.938,59.875 C43.938,61.942 45.619,63.625 47.688,63.625 C49.757,63.625 51.438,61.942 51.438,59.875 L51.438,56.125 C51.438,55.607 51.019,55.187 50.5,55.187 L35.5,55.187 C34.981,55.188 34.562,55.607 34.562,56.125 L34.562,56.125 Z M47.688,61.75 C46.655,61.75 45.813,60.91 45.813,59.875 L45.813,57.063 L49.563,57.063 L49.563,59.875 C49.562,60.91 48.721,61.75 47.688,61.75 L47.688,61.75 Z" id="Shape" sketch:type="MSShapeGroup"></path>
            <path d="M31.087,51.163 C31.271,51.346 31.51,51.437 31.75,51.437 C31.99,51.437 32.229,51.345 32.413,51.163 L33.625,49.951 L34.837,51.163 C35.021,51.346 35.26,51.437 35.5,51.437 C35.74,51.437 35.979,51.345 36.163,51.163 C36.529,50.797 36.529,50.203 36.163,49.837 L34.951,48.625 L36.163,47.413 C36.529,47.047 36.529,46.453 36.163,46.087 C35.797,45.721 35.203,45.721 34.837,46.087 L33.625,47.299 L32.413,46.087 C32.047,45.721 31.453,45.721 31.087,46.087 C30.721,46.453 30.721,47.047 31.087,47.413 L32.299,48.625 L31.087,49.837 C30.721,50.203 30.721,50.797 31.087,51.163 L31.087,51.163 Z" id="Shape" sketch:type="MSShapeGroup"></path>
            <path d="M49.837,51.163 C50.021,51.346 50.26,51.437 50.5,51.437 C50.74,51.437 50.979,51.345 51.163,51.163 L52.375,49.951 L53.587,51.163 C53.771,51.346 54.01,51.437 54.25,51.437 C54.49,51.437 54.729,51.345 54.913,51.163 C55.279,50.797 55.279,50.203 54.913,49.837 L53.701,48.625 L54.913,47.413 C55.279,47.047 55.279,46.453 54.913,46.087 C54.547,45.721 53.953,45.721 53.587,46.087 L52.375,47.299 L51.163,46.087 C50.797,45.721 50.203,45.721 49.837,46.087 C49.471,46.453 49.471,47.047 49.837,47.413 L51.049,48.625 L49.837,49.837 C49.471,50.203 49.471,50.797 49.837,51.163 L49.837,51.163 Z" id="Shape" sketch:type="MSShapeGroup"></path>
        </g>
    </g>
</svg>