<?xml version="1.0" encoding="UTF-8" standalone="no"?>
<svg width="600px" height="545px" viewBox="0 0 600 545" version="1.1" xmlns="http://www.w3.org/2000/svg" xmlns:xlink="http://www.w3.org/1999/xlink" xmlns:sketch="http://www.bohemiancoding.com/sketch/ns">
    <!-- Generator: Sketch 3.5.2 (25235) - http://www.bohemiancoding.com/sketch -->
    <title>wind@2x</title>
    <desc>Created with Sketch.</desc>
    <defs></defs>
    <g id="Page-1" stroke="none" stroke-width="1" fill="none" fill-rule="evenodd" sketch:type="MSPage">
        <g id="wind" sketch:type="MSLayerGroup" transform="translate(-0.097202, -1.638620)" fill="#FFFFFF">
            <path d="M337.137461,167.883779 C314.153875,167.883779 291.970889,177.512229 276.277719,194.296481 C265.579441,205.731594 266.181662,223.663609 277.60969,234.354802 C289.044804,245.045995 306.976818,244.450859 317.660926,233.015746 C322.762092,227.567418 329.677006,224.563398 337.137461,224.563398 C351.810397,224.563398 363.748542,236.508628 363.748542,251.195734 C363.748542,265.86867 351.810397,277.806815 337.137461,277.806815 L28.5736131,277.806815 C12.9229532,277.806815 0.23380343,290.495965 0.23380343,306.146625 C0.23380343,321.797285 12.9229532,334.486435 28.5736131,334.486435 L337.137461,334.486435 C383.062122,334.486435 420.428161,297.127481 420.428161,251.195734 C420.428161,205.256903 383.062122,167.883779 337.137461,167.883779" id="Fill-396" sketch:type="MSShapeGroup"></path>
            <path d="M230.04132,379.582157 L28.5736131,379.582157 C12.9229532,379.582157 0.23380343,392.271307 0.23380343,407.921966 C0.23380343,423.572626 12.9229532,436.261776 28.5736131,436.261776 L230.04132,436.261776 C244.728426,436.261776 256.680741,448.199921 256.680741,462.872857 C256.680741,477.552879 244.742596,489.498108 230.062575,489.498108 C222.609205,489.498108 215.687206,486.494089 210.564786,481.03159 C199.866508,469.603562 181.927408,469.036766 170.51355,479.735044 C159.092606,490.440407 158.518725,508.372422 169.217003,519.793365 C184.931428,536.563447 207.114414,546.177728 230.062575,546.177728 C275.994321,546.177728 313.36036,508.804604 313.36036,462.872857 C313.36036,416.948196 275.987236,379.582157 230.04132,379.582157" id="Fill-397" sketch:type="MSShapeGroup"></path>
            <path d="M481.082439,107.874232 L473.062273,107.874232 C470.362906,96.8217059 465.97732,83.5019953 458.835688,70.0264158 C435.611214,26.1847303 393.980034,2.04629744 341.622236,2.04629744 C289.122738,2.04629744 247.718276,26.2910046 225.039344,70.3168989 C217.692248,84.5789081 213.420022,98.6496236 210.926118,110.070567 C158.724189,119.557318 121.747822,158.956739 117.978628,212.3206 C116.88046,227.935835 128.641481,241.482264 144.256716,242.587517 C159.864866,243.714024 173.41838,231.924663 174.516548,216.316513 C176.741223,184.86641 200.787551,164.553851 235.801386,164.553851 C251.119053,164.553851 263.659419,152.381903 264.127026,137.071321 C264.367914,129.051154 268.611801,58.7259167 341.622236,58.7259167 C372.732262,58.7259167 394.440556,70.6498917 407.99407,95.1779969 C419.344163,115.696019 420.683219,137.425568 420.690304,137.489333 C421.377545,152.622791 433.854146,164.553851 449.008859,164.553851 L481.082439,164.553851 C517.825002,164.553851 542.523146,187.310718 542.523146,221.183876 C542.523146,248.460942 523.294585,277.820985 481.082439,277.820985 C465.431779,277.820985 452.742629,290.510135 452.742629,306.160795 C452.742629,321.811455 465.431779,334.500605 481.082439,334.500605 C548.424912,334.500605 599.202765,285.784472 599.202765,221.183876 C599.202765,155.527622 549.523079,107.874232 481.082439,107.874232" id="Fill-398" sketch:type="MSShapeGroup"></path>
        </g>
    </g>
</svg>